<svg id="Capa_1" data-name="Capa 1" xmlns="http://www.w3.org/2000/svg" viewBox="0 0 952.54 609.19"><defs><style>.cls-1{fill:#88b183;}.cls-2{fill:#4e665c;}.cls-3{fill:#6c8c6f;}.cls-4{fill:#7fa57d;}.cls-5{fill:#3e5252;}.cls-6{fill:#36474d;}.cls-7{fill:#2e3b46;}.cls-8{fill:#587363;}.cls-9{fill:#4b615a;}.cls-10{fill:#000029;}.cls-11{fill:#a7d897;}.cls-12{fill:#c4feab;}</style></defs><title>devplay</title><polygon class="cls-1" points="475.36 519.82 521.73 519.82 702.64 64.96 656.28 64.96 475.36 519.82"/><polygon class="cls-2" points="441.77 105.86 399.98 105.86 463.31 274.24 484.64 219.81 441.77 105.86"/><polygon class="cls-3" points="537.13 106.05 578.92 106.05 515.59 274.43 494.27 219.99 537.13 106.05"/><polygon class="cls-4" points="509.9 287.01 489.42 232.57 468.1 287.01 509.9 287.01"/><path class="cls-5" d="M320.39,190.18a48.52,48.52,0,0,1,21.53,5.06h57.8A90.57,90.57,0,1,0,408.48,260H364.33a48.74,48.74,0,1,1-69.72-62.41,9,9,0,0,1,3.26-1.89A48.49,48.49,0,0,1,320.39,190.18Z" transform="translate(-23.09 -45.6)"/><path class="cls-6" d="M162.44,321.3V325h41.81V276A100.3,100.3,0,0,1,162.44,321.3Z" transform="translate(-23.09 -45.6)"/><path class="cls-6" d="M204.25,192.8V45.6H162.44V147.48A100.29,100.29,0,0,1,204.25,192.8Z" transform="translate(-23.09 -45.6)"/><path class="cls-7" d="M113.67,283.16a48.77,48.77,0,1,1,39.64-77.09V153a90.58,90.58,0,1,0,0,162.69v-53A48.65,48.65,0,0,1,113.67,283.16Z" transform="translate(-23.09 -45.6)"/><path class="cls-8" d="M162.44,158.15V310.64a90.43,90.43,0,0,0,0-152.49Z" transform="translate(-23.09 -45.6)"/><path class="cls-9" d="M339.72,204.37H301.08l-.45.27v41.53h58.73a40.56,40.56,0,0,0,.7-7.22A39.66,39.66,0,0,0,339.72,204.37Z" transform="translate(-23.09 -45.6)"/><path class="cls-4" d="M404.1,204.37H354.77a48.65,48.65,0,0,1,14.4,34.58,47.61,47.61,0,0,1-.61,7.22h42.51v-41.8Z" transform="translate(-23.09 -45.6)"/><path class="cls-10" d="M300.62,204.37v.27l.45-.27Z" transform="translate(-23.09 -45.6)"/><path class="cls-3" d="M413.19,383.08a90.15,90.15,0,0,0-48.78,14.27V383.08H322.62V654.8h41.79V550a90.57,90.57,0,1,0,48.78-166.87Zm0,139.34a48.77,48.77,0,1,1,48.76-48.76A48.78,48.78,0,0,1,413.19,522.42Z" transform="translate(-23.09 -45.6)"/><path class="cls-11" d="M703.74,383.08A90.57,90.57,0,1,0,752.52,550v14.27h41.8V464.36h-.47A90.58,90.58,0,0,0,703.74,383.08Zm0,139.34a48.77,48.77,0,1,1,48.78-48.76A48.77,48.77,0,0,1,703.74,522.42Z" transform="translate(-23.09 -45.6)"/><polygon class="cls-12" points="876.67 428.05 863.47 463.19 816.18 337.48 774.38 337.48 842.52 518.63 808.45 609.19 850.25 609.19 884.31 518.63 884.42 518.63 918.49 428.05 952.54 337.48 910.75 337.48 876.67 428.05"/></svg>